<?xml version="1.0" encoding="UTF-8" standalone="no"?><!DOCTYPE svg PUBLIC "-//W3C//DTD SVG 1.1//EN" "http://www.w3.org/Graphics/SVG/1.1/DTD/svg11.dtd">
<svg width="100%" height="100%" viewBox="0 0 280 280" version="1.1"
    xmlns="http://www.w3.org/2000/svg"
    xmlns:xlink="http://www.w3.org/1999/xlink" xml:space="preserve"
    xmlns:serif="http://www.serif.com/" style="fill-rule:evenodd;clip-rule:evenodd;stroke-linejoin:round;stroke-miterlimit:2;">
    <g>
        <path d="M37.5,165.729c-0,-19.603 8.493,-34.305 25.479,-44.107c8.465,-4.901 16.958,-7.351 25.479,-7.351c8.465,-0 16.958,2.45 25.478,7.351c17.042,9.802 25.563,24.504 25.563,44.107l-10.192,0c0,-15.649 -6.822,-27.4 -20.466,-35.252c-6.795,-3.954 -13.589,-5.931 -20.383,-5.931c-6.795,-0 -13.589,1.977 -20.383,5.931c-13.589,7.797 -20.383,19.547 -20.383,35.252l-10.192,0Z" style="fill-rule:nonzero;"/>
        <path d="M140.501,165.729c0,-19.603 8.493,-34.305 25.479,-44.107c8.465,-4.901 16.958,-7.351 25.479,-7.351c8.465,-0 16.958,2.45 25.479,7.351c17.041,9.802 25.562,24.504 25.562,44.107l-10.192,0c0,-15.649 -6.822,-27.4 -20.466,-35.252c-6.794,-3.954 -13.589,-5.931 -20.383,-5.931c-6.795,-0 -13.589,1.977 -20.383,5.931c-13.589,7.797 -20.383,19.547 -20.383,35.252l-10.192,0Z" style="fill-rule:nonzero;"/>
    </g>
</svg>